# Blender v2.78 (sub 0) OBJ File: 'table.blend'
# www.blender.org
mtllib table.mtl
o Cube_Cube.001
v -0.834254 1.094772 0.834254
v -0.834254 1.305957 0.834254
v -0.834254 1.094772 -0.834254
v -0.834254 1.305957 -0.834254
v 0.834254 1.094772 0.834254
v 0.834254 1.305957 0.834254
v 0.834254 1.094772 -0.834254
v 0.834254 1.305957 -0.834254
v -0.834254 1.094772 -0.278085
v -0.834254 1.094772 0.278085
v -0.834254 1.305957 0.278085
v -0.834254 1.305957 -0.278085
v 0.834254 1.094772 0.278085
v 0.834254 1.094772 -0.278085
v 0.834254 1.305957 -0.278085
v 0.834254 1.305957 0.278085
v 0.278085 1.094772 -0.834254
v -0.278085 1.094772 -0.834254
v -0.278085 1.305957 -0.834254
v 0.278085 1.305957 -0.834254
v -0.278085 1.094772 0.834254
v 0.278085 1.094772 0.834254
v 0.278085 1.305957 0.834254
v -0.278085 1.305957 0.834254
v -0.278085 1.305957 -0.278085
v 0.278085 1.305957 -0.278085
v -0.278085 1.305957 0.278085
v 0.278085 1.305957 0.278085
v 0.278085 1.094772 -0.278085
v -0.278085 1.094772 -0.278085
v 0.278085 1.094772 0.278085
v -0.278085 1.094772 0.278085
v 0.556169 1.305957 -0.834254
v 0.556169 1.094772 0.834254
v 0.556169 1.305957 -0.278085
v 0.556169 1.305957 0.278085
v 0.556169 1.094772 -0.834254
v 0.556169 1.305957 0.834254
v 0.556169 1.094772 -0.278085
v 0.556169 1.094772 0.278085
v -0.556169 1.094772 -0.834254
v -0.556169 1.305957 0.834254
v -0.556169 1.094772 -0.278085
v -0.556169 1.094772 0.278085
v -0.556169 1.305957 -0.834254
v -0.556169 1.094772 0.834254
v -0.556169 1.305957 -0.278085
v -0.556169 1.305957 0.278085
v -0.834254 1.094772 0.556169
v 0.834254 1.305957 0.556169
v -0.834254 1.305957 0.556169
v 0.834254 1.094772 0.556169
v 0.278085 1.305957 0.556169
v -0.278085 1.305957 0.556169
v -0.278085 1.094772 0.556169
v 0.278085 1.094772 0.556169
v 0.556169 1.305957 0.556169
v 0.556169 1.094772 0.556169
v -0.556169 1.094772 0.556169
v -0.556169 1.305957 0.556169
v -0.834254 1.305957 -0.556169
v 0.834254 1.094772 -0.556169
v -0.834254 1.094772 -0.556169
v 0.834254 1.305957 -0.556169
v -0.278085 1.094772 -0.556169
v 0.278085 1.094772 -0.556169
v 0.278085 1.305957 -0.556169
v -0.278085 1.305957 -0.556169
v 0.556169 1.305957 -0.556169
v 0.556169 1.094772 -0.556169
v -0.556169 1.094772 -0.556169
v -0.556169 1.305957 -0.556169
v -0.834254 -0.022448 0.556169
v -0.834254 -0.022448 0.834254
v -0.556169 -0.022448 -0.834254
v -0.834254 -0.022448 -0.834254
v 0.834254 -0.022448 -0.556169
v 0.834254 -0.022448 -0.834254
v 0.556169 -0.022448 0.834254
v 0.834254 -0.022448 0.834254
v 0.556169 -0.022448 -0.834254
v 0.556169 -0.022448 0.556169
v -0.556169 -0.022448 0.834254
v -0.556169 -0.022448 0.556169
v 0.834254 -0.022448 0.556169
v -0.834254 -0.022448 -0.556169
v 0.556169 -0.022448 -0.556169
v -0.556169 -0.022448 -0.556169
vn -1.0000 0.0000 0.0000
vn 0.0000 0.0000 -1.0000
vn 1.0000 0.0000 0.0000
vn 0.0000 0.0000 1.0000
vn 0.0000 1.0000 0.0000
vn 0.0000 -1.0000 0.0000
usemtl None
s off
f 63//1 61//1 4//1 3//1
f 37//2 33//2 8//2 7//2
f 52//3 50//3 6//3 5//3
f 46//4 42//4 2//4 1//4
f 46//4 1//4 74//4 83//4
f 60//5 51//5 2//5 42//5
f 72//5 61//5 12//5 47//5
f 47//5 12//5 11//5 48//5
f 70//6 62//6 14//6 39//6
f 39//6 14//6 13//6 40//6
f 62//3 64//3 15//3 14//3
f 14//3 15//3 16//3 13//3
f 49//1 51//1 11//1 10//1
f 10//1 11//1 12//1 9//1
f 43//6 30//6 32//6 44//6
f 30//6 29//6 31//6 32//6
f 71//6 65//6 30//6 43//6
f 65//6 66//6 29//6 30//6
f 35//5 26//5 28//5 36//5
f 26//5 25//5 27//5 28//5
f 69//5 67//5 26//5 35//5
f 67//5 68//5 25//5 26//5
f 57//5 53//5 23//5 38//5
f 53//5 54//5 24//5 23//5
f 59//6 55//6 21//6 46//6
f 55//6 56//6 22//6 21//6
f 34//4 38//4 23//4 22//4
f 22//4 23//4 24//4 21//4
f 41//2 45//2 19//2 18//2
f 18//2 19//2 20//2 17//2
f 5//4 6//4 38//4 34//4
f 50//5 57//5 38//5 6//5
f 64//5 69//5 35//5 15//5
f 15//5 35//5 36//5 16//5
f 29//6 39//6 40//6 31//6
f 66//6 70//6 39//6 29//6
f 56//6 58//6 34//6 22//6
f 17//2 20//2 33//2 37//2
f 3//2 4//2 45//2 41//2
f 7//3 62//3 77//3 78//3
f 63//6 71//6 43//6 9//6
f 9//6 43//6 44//6 10//6
f 25//5 47//5 48//5 27//5
f 68//5 72//5 47//5 25//5
f 54//5 60//5 42//5 24//5
f 21//4 24//4 42//4 46//4
f 27//5 48//5 60//5 54//5
f 10//6 44//6 59//6 49//6
f 31//6 40//6 58//6 56//6
f 16//5 36//5 57//5 50//5
f 32//6 31//6 56//6 55//6
f 44//6 32//6 55//6 59//6
f 28//5 27//5 54//5 53//5
f 36//5 28//5 53//5 57//5
f 1//1 2//1 51//1 49//1
f 48//5 11//5 51//5 60//5
f 40//6 13//6 52//6 58//6
f 13//3 16//3 50//3 52//3
f 19//5 45//5 72//5 68//5
f 70//1 37//1 81//1 87//1
f 17//6 37//6 70//6 66//6
f 8//5 33//5 69//5 64//5
f 20//5 19//5 68//5 67//5
f 33//5 20//5 67//5 69//5
f 18//6 17//6 66//6 65//6
f 41//6 18//6 65//6 71//6
f 7//3 8//3 64//3 62//3
f 52//3 5//3 80//3 85//3
f 45//5 4//5 61//5 72//5
f 9//1 12//1 61//1 63//1
f 82//6 85//6 80//6 79//6
f 73//6 84//6 83//6 74//6
f 76//6 75//6 88//6 86//6
f 81//6 78//6 77//6 87//6
f 63//1 3//1 76//1 86//1
f 1//1 49//1 73//1 74//1
f 34//1 58//1 82//1 79//1
f 41//3 71//3 88//3 75//3
f 49//2 59//2 84//2 73//2
f 5//4 34//4 79//4 80//4
f 58//2 52//2 85//2 82//2
f 71//4 63//4 86//4 88//4
f 59//3 46//3 83//3 84//3
f 62//4 70//4 87//4 77//4
f 3//2 41//2 75//2 76//2
f 37//2 7//2 78//2 81//2
